<svg width="21" height="26" viewBox="0 0 21 26" fill="none" xmlns="http://www.w3.org/2000/svg">
<path d="M19.3636 8.87592C19.2211 8.98649 16.7052 10.4042 16.7052 13.5565C16.7052 17.2027 19.9066 18.4926 20.0025 18.5246C19.9877 18.6032 19.4939 20.2912 18.3145 22.0111C17.2629 23.5246 16.1646 25.0356 14.4939 25.0356C12.8231 25.0356 12.3931 24.0651 10.4644 24.0651C8.58477 24.0651 7.91646 25.0676 6.38821 25.0676C4.85995 25.0676 3.79361 23.6671 2.56757 21.9472C1.14742 19.9275 0 16.7899 0 13.812C0 9.03563 3.10565 6.50246 6.16216 6.50246C7.78624 6.50246 9.14005 7.5688 10.1597 7.5688C11.1302 7.5688 12.6437 6.43857 14.4914 6.43857C15.1916 6.43857 17.7076 6.50246 19.3636 8.87592ZM13.6143 4.41646C14.3784 3.50983 14.9189 2.25184 14.9189 0.993857C14.9189 0.81941 14.9042 0.642506 14.8722 0.5C13.629 0.546683 12.1499 1.32801 11.258 2.36241C10.5577 3.15848 9.90418 4.41646 9.90418 5.69165C9.90418 5.88329 9.93612 6.07494 9.95086 6.13636C10.0295 6.15111 10.1572 6.1683 10.285 6.1683C11.4005 6.1683 12.8034 5.42138 13.6143 4.41646Z" fill="#EFEFEF"/>
</svg>
