<svg width="25" height="25" viewBox="0 0 25 25" fill="none" xmlns="http://www.w3.org/2000/svg">
<path d="M11.3789 24.9453H13.5234C14.2148 24.9453 14.7422 24.5352 14.8828 23.8555L15.4805 21.3594C15.8789 21.2188 16.2656 21.0664 16.6172 20.9023L18.7969 22.2383C19.3711 22.6016 20.0391 22.543 20.5195 22.0625L22.0195 20.5625C22.5 20.082 22.5703 19.3789 22.1836 18.8047L20.8594 16.6484C21.0234 16.2852 21.1875 15.9102 21.3047 15.5469L23.8125 14.9492C24.4922 14.7969 24.9023 14.2812 24.9023 13.5898V11.4805C24.9023 10.7891 24.4922 10.2734 23.8125 10.1211L21.3281 9.52344C21.1875 9.10156 21.0234 8.72656 20.8828 8.41016L22.207 6.20703C22.582 5.62109 22.5352 4.96484 22.043 4.47266L20.5195 2.97266C20.0273 2.52734 19.418 2.44531 18.832 2.77344L16.6172 4.13281C16.2773 3.96875 15.9023 3.81641 15.4805 3.67578L14.8828 1.14453C14.7422 0.464844 14.2148 0.0546875 13.5234 0.0546875H11.3789C10.6758 0.0546875 10.1602 0.464844 10.0078 1.15625L9.42188 3.65234C9.01172 3.79297 8.61328 3.94531 8.26172 4.12109L6.05859 2.77344C5.47266 2.44531 4.86328 2.51562 4.37109 2.97266L2.84766 4.47266C2.35547 4.96484 2.30859 5.62109 2.68359 6.20703L4.00781 8.41016C3.86719 8.72656 3.70312 9.10156 3.57422 9.52344L1.08984 10.1211C0.410156 10.2734 0 10.7891 0 11.4805V13.5898C0 14.2812 0.410156 14.7969 1.08984 14.9492L3.59766 15.5469C3.71484 15.9102 3.86719 16.2852 4.03125 16.6484L2.70703 18.8047C2.32031 19.3789 2.39062 20.082 2.87109 20.5625L4.37109 22.0625C4.85156 22.543 5.53125 22.6016 6.10547 22.2383L8.27344 20.9023C8.625 21.0664 9.01172 21.2188 9.42188 21.3594L10.0078 23.8555C10.1602 24.5352 10.6758 24.9453 11.3789 24.9453ZM12.457 16.6016C10.1953 16.6016 8.34375 14.75 8.34375 12.4883C8.34375 10.25 10.1953 8.39844 12.457 8.39844C14.707 8.39844 16.5469 10.25 16.5469 12.4883C16.5469 14.75 14.707 16.6016 12.457 16.6016Z" fill="#EFEFEF"/>
</svg>
