<svg width="50" height="65" viewBox="0 0 50 65" fill="none" xmlns="http://www.w3.org/2000/svg">
<path d="M5.14674 21.8299C9.33861 8.53157 19.1111 9.84919 25.1117 20.3404C30.8873 8.78841 39.5011 10.5341 44.3813 18.7511C49.9201 31.2071 42.2649 43.0785 25.4094 43.7304C8.46729 42.335 2.5469 34.8563 5.14674 21.8299ZM44.4222 13.0656C43.4691 10.8065 43.2989 8.8314 43.7198 7.0709C44.4522 6.11981 45.656 5.60059 47.085 5.28906C46.1824 5.11782 45.2977 5.04116 44.4463 5.14672C45.4679 3.19709 47.2452 1.52495 49.4325 -2.28882e-05C44.7049 0.992325 40.5952 2.92682 38.4475 7.87721C30.0865 2.63901 18.8821 2.15488 10.8044 7.48007C8.61239 2.82229 4.59727 0.96344 0 -2.28882e-05C2.1831 1.52357 3.95874 3.19501 4.98066 5.14086C4.14683 5.04493 3.27895 5.12298 2.39697 5.28906C3.7765 5.59061 4.94903 6.08404 5.68693 6.97736C6.15353 8.82521 5.96751 10.9083 4.90054 13.3162C-1.27155 21.5342 -1.22376 34.5957 5.7894 42.3113C7.58051 44.2819 10.0889 46.1992 12.5178 47.3157C15.9491 48.8912 19.4536 50.1483 23.2167 50.5971C32.6062 51.7173 26.1724 64.7351 26.1724 64.7351C43.0431 59.1128 47.3622 41.7055 48.241 39.6379L48.25 39.6162C51.8525 28.2555 49.558 19.2287 44.4222 13.0656Z" fill="#297877"/>
</svg>
